<svg xmlns="http://www.w3.org/2000/svg" role="img" aria-labelledby="f03-title f03-desc" viewBox="0 0 720 330" font-family="Inter,'Helvetica Neue',Arial,sans-serif">
  <title id="f03-title">Atomic creation and prize escrow</title>
  <desc id="f03-desc">The factory validates, deploys, registers, deposits, and verifies in one transaction; any failure rolls back every step.</desc>
  <defs><marker id="f03m1e2a9b" viewBox="0 0 10 10" refX="8.4" refY="5" markerWidth="6.4" markerHeight="6.4" orient="auto-start-reverse"><path d="M 0 0.6 L 9.4 5 L 0 9.4 z" fill="#1e2a9b"/></marker><marker id="f03mc8213f" viewBox="0 0 10 10" refX="8.4" refY="5" markerWidth="6.4" markerHeight="6.4" orient="auto-start-reverse"><path d="M 0 0.6 L 9.4 5 L 0 9.4 z" fill="#c8213f"/></marker><marker id="f03m22b573" viewBox="0 0 10 10" refX="8.4" refY="5" markerWidth="6.4" markerHeight="6.4" orient="auto-start-reverse"><path d="M 0 0.6 L 9.4 5 L 0 9.4 z" fill="#22b573"/></marker></defs>
  <rect x="0.75" y="0.75" width="718.5" height="328.5" rx="17" fill="#fcfcff" stroke="#dcdded" stroke-width="1.5"/>
  <rect x="26" y="56" width="548" height="196" rx="16" fill="#f4f4fb" stroke="#1e2a9b" stroke-width="1.6" stroke-dasharray="7 5"/>
  <g><rect x="44.0" y="45" width="190.6" height="22" rx="11" fill="#ffffff" stroke="#1e2a9b" stroke-width="1.3"/><text x="139.2829068" y="59.78" text-anchor="middle" font-family="Inter,'Helvetica Neue',Arial,sans-serif" font-size="10.5" font-weight="750" fill="#1e2a9b">one transaction · createRaffle()</text></g>
  <rect x="44" y="82" width="97" height="96" rx="12" fill="#ffffff" stroke="#1e2a9b" stroke-width="1.6"/><g transform="translate(81.5 92.2) scale(0.917)" stroke="#1e2a9b" fill="none" stroke-width="1.9" stroke-linecap="round" stroke-linejoin="round" color="#1e2a9b"><path d="M7 3.4h7.2l3.8 3.8v13.4H7Z"/><path d="M14.2 3.4v3.8H18M9.7 12h4.6M9.7 15.2h4.6"/></g><text x="92.5" y="131.63" text-anchor="middle" font-family="Inter,'Helvetica Neue',Arial,sans-serif" font-size="11.5" font-weight="750" fill="#10143a"><tspan x="92.5" dy="0">Validate</tspan></text><text x="92.5" y="145" text-anchor="middle" font-family="Inter,'Helvetica Neue',Arial,sans-serif" font-size="9.3" font-weight="500" fill="#676c94"><tspan x="92.5" dy="0">terms, dates,</tspan><tspan x="92.5" dy="12.8">addresses</tspan></text><circle cx="45" cy="83" r="11" fill="#1e2a9b"/><text x="45" y="87" text-anchor="middle" font-family="Inter,'Helvetica Neue',Arial,sans-serif" font-size="11.5" font-weight="800" fill="#ffffff">1</text>
  <line x1="142.5" y1="130" x2="145.75" y2="130" stroke="#1e2a9b" stroke-width="2" stroke-linecap="round" marker-end="url(#f03m1e2a9b)"/>
  <rect x="147.75" y="82" width="97" height="96" rx="12" fill="#ffffff" stroke="#1e2a9b" stroke-width="1.6"/><g transform="translate(185.25 92.2) scale(0.917)" stroke="#1e2a9b" fill="none" stroke-width="1.9" stroke-linecap="round" stroke-linejoin="round" color="#1e2a9b"><path d="M4.2 19.8V9.4l4.4 2.9V9.4l4.4 2.9V5.2h6.8v14.6Z"/><path d="M16.4 9h2m-2 3.4h2m-2 3.4h2"/></g><text x="196.25" y="131.63" text-anchor="middle" font-family="Inter,'Helvetica Neue',Arial,sans-serif" font-size="11.5" font-weight="750" fill="#10143a"><tspan x="196.25" dy="0">Deploy</tspan></text><text x="196.25" y="145" text-anchor="middle" font-family="Inter,'Helvetica Neue',Arial,sans-serif" font-size="9.3" font-weight="500" fill="#676c94"><tspan x="196.25" dy="0">constructor</tspan><tspan x="196.25" dy="12.8">CREATE</tspan></text><circle cx="148.75" cy="83" r="11" fill="#1e2a9b"/><text x="148.75" y="87" text-anchor="middle" font-family="Inter,'Helvetica Neue',Arial,sans-serif" font-size="11.5" font-weight="800" fill="#ffffff">2</text>
  <line x1="246.25" y1="130" x2="249.5" y2="130" stroke="#1e2a9b" stroke-width="2" stroke-linecap="round" marker-end="url(#f03m1e2a9b)"/>
  <rect x="251.5" y="82" width="97" height="96" rx="12" fill="#ffffff" stroke="#1e2a9b" stroke-width="1.6"/><g transform="translate(289 92.2) scale(0.917)" stroke="#1e2a9b" fill="none" stroke-width="1.9" stroke-linecap="round" stroke-linejoin="round" color="#1e2a9b"><path d="M12 3.2 19.8 7.6v8.8L12 20.8 4.2 16.4V7.6Z"/><path d="M4.2 7.6 12 12l7.8-4.4M12 12v8.8"/></g><text x="300" y="131.63" text-anchor="middle" font-family="Inter,'Helvetica Neue',Arial,sans-serif" font-size="11.5" font-weight="750" fill="#10143a"><tspan x="300" dy="0">Register</tspan></text><text x="300" y="145" text-anchor="middle" font-family="Inter,'Helvetica Neue',Arial,sans-serif" font-size="9.3" font-weight="500" fill="#676c94"><tspan x="300" dy="0">ID + canonical</tspan><tspan x="300" dy="12.8">address</tspan></text><circle cx="252.5" cy="83" r="11" fill="#1e2a9b"/><text x="252.5" y="87" text-anchor="middle" font-family="Inter,'Helvetica Neue',Arial,sans-serif" font-size="11.5" font-weight="800" fill="#ffffff">3</text>
  <line x1="350" y1="130" x2="353.25" y2="130" stroke="#1e2a9b" stroke-width="2" stroke-linecap="round" marker-end="url(#f03m1e2a9b)"/>
  <rect x="355.25" y="82" width="97" height="96" rx="12" fill="#ffffff" stroke="#1e2a9b" stroke-width="1.6"/><g transform="translate(392.75 92.2) scale(0.917)" stroke="#1e2a9b" fill="none" stroke-width="1.9" stroke-linecap="round" stroke-linejoin="round" color="#1e2a9b"><path d="M12 3.4 18.8 9 12 20.6 5.2 9 Z"/><path d="M5.2 9h13.6M12 3.4 9.6 9l2.4 11.6M12 3.4 14.4 9"/></g><text x="403.75" y="131.63" text-anchor="middle" font-family="Inter,'Helvetica Neue',Arial,sans-serif" font-size="11.5" font-weight="750" fill="#10143a"><tspan x="403.75" dy="0">Deposit</tspan></text><text x="403.75" y="145" text-anchor="middle" font-family="Inter,'Helvetica Neue',Arial,sans-serif" font-size="9.3" font-weight="500" fill="#676c94"><tspan x="403.75" dy="0">safe NFT</tspan><tspan x="403.75" dy="12.8">transfer in</tspan></text><circle cx="356.25" cy="83" r="11" fill="#1e2a9b"/><text x="356.25" y="87" text-anchor="middle" font-family="Inter,'Helvetica Neue',Arial,sans-serif" font-size="11.5" font-weight="800" fill="#ffffff">4</text>
  <line x1="453.75" y1="130" x2="457" y2="130" stroke="#1e2a9b" stroke-width="2" stroke-linecap="round" marker-end="url(#f03m1e2a9b)"/>
  <rect x="459" y="82" width="97" height="96" rx="12" fill="#ffffff" stroke="#1e2a9b" stroke-width="1.6"/><g transform="translate(496.5 92.2) scale(0.917)" stroke="#1e2a9b" fill="none" stroke-width="1.9" stroke-linecap="round" stroke-linejoin="round" color="#1e2a9b"><path d="M12 3.2 18.8 6v5.1c0 4.3-2.8 7.2-6.8 8.7-4-1.5-6.8-4.4-6.8-8.7V6Z"/><path d="m9.1 11.7 2.1 2.1 3.9-4"/></g><text x="507.5" y="131.63" text-anchor="middle" font-family="Inter,'Helvetica Neue',Arial,sans-serif" font-size="11.5" font-weight="750" fill="#10143a"><tspan x="507.5" dy="0">Verify</tspan></text><text x="507.5" y="145" text-anchor="middle" font-family="Inter,'Helvetica Neue',Arial,sans-serif" font-size="9.3" font-weight="500" fill="#676c94"><tspan x="507.5" dy="0">ownerOf ==</tspan><tspan x="507.5" dy="12.8">raffle</tspan></text><circle cx="460" cy="83" r="11" fill="#1e2a9b"/><text x="460" y="87" text-anchor="middle" font-family="Inter,'Helvetica Neue',Arial,sans-serif" font-size="11.5" font-weight="800" fill="#ffffff">5</text>
  <path d="M 526 182 L 526 201 Q 526 208 519 208 L 72 208" fill="none" stroke="#c8213f" stroke-width="1.8" stroke-linecap="round" stroke-dasharray="5 4" marker-end="url(#f03mc8213f)"/>
  <g transform="translate(80 214) scale(0.667)" stroke="#c8213f" fill="none" stroke-width="1.9" stroke-linecap="round" stroke-linejoin="round" color="#c8213f"><path d="M6.6 5.4v4.4H11"/><path d="M6.9 9.6a6.9 6.9 0 1 1-1 4.9"/></g>
  <text x="102" y="226" text-anchor="start" font-family="Inter,'Helvetica Neue',Arial,sans-serif" font-size="10" font-weight="650" fill="#c8213f">any failure reverts every step: deployment, registry, event, NFT</text>
  <line x1="576" y1="154" x2="610" y2="154" stroke="#22b573" stroke-width="2.4" stroke-linecap="round" marker-end="url(#f03m22b573)"/>
  <rect x="612" y="96" width="84" height="116" rx="12" fill="#e3f7ee" stroke="#22b573" stroke-width="1.6"/><g transform="translate(643 109) scale(0.917)" stroke="#22b573" fill="none" stroke-width="1.9" stroke-linecap="round" stroke-linejoin="round" color="#22b573"><path d="M12 3.2 18.8 6v5.1c0 4.3-2.8 7.2-6.8 8.7-4-1.5-6.8-4.4-6.8-8.7V6Z"/><path d="m9.1 11.7 2.1 2.1 3.9-4"/></g><text x="654" y="149.25" text-anchor="middle" font-family="Inter,'Helvetica Neue',Arial,sans-serif" font-size="12.5" font-weight="750" fill="#10143a"><tspan x="654" dy="0">Active</tspan></text><text x="654" y="162.8" text-anchor="middle" font-family="Inter,'Helvetica Neue',Arial,sans-serif" font-size="9.5" font-weight="500" fill="#676c94"><tspan x="654" dy="0">prize</tspan><tspan x="654" dy="13">escrowed,</tspan><tspan x="654" dy="13">sale live</tspan></text>
  <text x="26" y="292" text-anchor="start" font-family="Inter,'Helvetica Neue',Arial,sans-serif" font-size="10.5" font-weight="550" fill="#676c94">There is no partially created raffle: registration, escrow, and verification are one atomic unit.</text>
</svg>
