<svg xmlns="http://www.w3.org/2000/svg" role="img" aria-labelledby="f08-title f08-desc" viewBox="0 0 720 274" font-family="Inter,'Helvetica Neue',Arial,sans-serif">
  <title id="f08-title">Winner selection</title>
  <desc id="f08-desc">The authenticated 256-bit random value is reduced modulo the sold ticket count and shifted by one, selecting a winning ID in the complete range.</desc>
  <defs><marker id="f08m676c94" viewBox="0 0 10 10" refX="8.4" refY="5" markerWidth="6.4" markerHeight="6.4" orient="auto-start-reverse"><path d="M 0 0.6 L 9.4 5 L 0 9.4 z" fill="#676c94"/></marker></defs>
  <rect x="0.75" y="0.75" width="718.5" height="272.5" rx="17" fill="#fcfcff" stroke="#dcdded" stroke-width="1.5"/>
  <rect x="26" y="40" width="168" height="64" rx="12" fill="#f1eafc" stroke="#7b3fe4" stroke-width="1.6"/>
  <text x="110" y="68" text-anchor="middle" font-family="'SF Mono',Menlo,Consolas,monospace" font-size="12.5" font-weight="760" fill="#10143a">randomNumber</text>
  <text x="110" y="86" text-anchor="middle" font-family="Inter,'Helvetica Neue',Arial,sans-serif" font-size="9.3" font-weight="550" fill="#676c94">authenticated uint256</text>
  <rect x="228" y="40" width="168" height="64" rx="12" fill="#ffffff" stroke="#1e2a9b" stroke-width="1.6"/>
  <text x="312" y="68" text-anchor="middle" font-family="'SF Mono',Menlo,Consolas,monospace" font-size="12.5" font-weight="760" fill="#10143a">mod totalTickets</text>
  <text x="312" y="86" text-anchor="middle" font-family="Inter,'Helvetica Neue',Arial,sans-serif" font-size="9.3" font-weight="550" fill="#676c94">uniform 0 .. N-1</text>
  <rect x="430" y="40" width="96" height="64" rx="12" fill="#ffffff" stroke="#1e2a9b" stroke-width="1.6"/>
  <text x="478" y="68" text-anchor="middle" font-family="'SF Mono',Menlo,Consolas,monospace" font-size="12.5" font-weight="760" fill="#10143a">+ 1</text>
  <text x="478" y="86" text-anchor="middle" font-family="Inter,'Helvetica Neue',Arial,sans-serif" font-size="9.3" font-weight="550" fill="#676c94">shift to 1-based</text>
  <rect x="560" y="40" width="134" height="64" rx="12" fill="#e3f7ee" stroke="#22b573" stroke-width="1.6"/>
  <text x="627" y="68" text-anchor="middle" font-family="Inter,'Helvetica Neue',Arial,sans-serif" font-size="12.5" font-weight="760" fill="#10143a">winning ID</text>
  <text x="627" y="86" text-anchor="middle" font-family="Inter,'Helvetica Neue',Arial,sans-serif" font-size="9.3" font-weight="550" fill="#676c94">1 .. N inclusive</text>
  <line x1="196" y1="72" x2="224" y2="72" stroke="#676c94" stroke-width="2.2" stroke-linecap="round" marker-end="url(#f08m676c94)"/>
  <line x1="398" y1="72" x2="426" y2="72" stroke="#676c94" stroke-width="2.2" stroke-linecap="round" marker-end="url(#f08m676c94)"/>
  <line x1="528" y1="72" x2="556" y2="72" stroke="#676c94" stroke-width="2.2" stroke-linecap="round" marker-end="url(#f08m676c94)"/>
  <text x="44" y="136" text-anchor="start" font-family="Inter,'Helvetica Neue',Arial,sans-serif" font-size="9.5" font-weight="650" fill="#676c94">every sold ticket 1 .. totalTickets · nothing excluded, nothing weighted</text>
  <rect x="44" y="150" width="52" height="50" rx="9" fill="#ffffff" stroke="#dcdded" stroke-width="1.2"/>
  <text x="70" y="180" text-anchor="middle" font-family="'SF Mono',Menlo,Consolas,monospace" font-size="11" font-weight="650" fill="#454b78">1</text>
  <rect x="102" y="150" width="52" height="50" rx="9" fill="#ffffff" stroke="#dcdded" stroke-width="1.2"/>
  <text x="128" y="180" text-anchor="middle" font-family="'SF Mono',Menlo,Consolas,monospace" font-size="11" font-weight="650" fill="#454b78">2</text>
  <rect x="160" y="150" width="52" height="50" rx="9" fill="#ffffff" stroke="#dcdded" stroke-width="1.2"/>
  <text x="186" y="180" text-anchor="middle" font-family="'SF Mono',Menlo,Consolas,monospace" font-size="11" font-weight="650" fill="#454b78">3</text>
  <rect x="218" y="150" width="52" height="50" rx="9" fill="#fcfcff" stroke="#dcdded" stroke-width="1.2"/>
  <text x="244" y="180" text-anchor="middle" font-family="'SF Mono',Menlo,Consolas,monospace" font-size="11" font-weight="650" fill="#9aa0c0">···</text>
  <rect x="276" y="150" width="52" height="50" rx="9" fill="#ffffff" stroke="#dcdded" stroke-width="1.2"/>
  <text x="302" y="180" text-anchor="middle" font-family="'SF Mono',Menlo,Consolas,monospace" font-size="11" font-weight="650" fill="#454b78">41</text>
  <rect x="334" y="150" width="52" height="50" rx="9" fill="#22b573" stroke="#0d6b45" stroke-width="2"/>
  <g transform="translate(352 157) scale(0.667)" stroke="#ffffff" fill="none" stroke-width="1.9" stroke-linecap="round" stroke-linejoin="round" color="#ffffff"><path d="M8.2 4.2h7.6v4.4a3.8 3.8 0 0 1-7.6 0z"/><path d="M8.2 5.2H5.9a2.55 2.55 0 0 0 2.5 3.3M15.8 5.2h2.3a2.55 2.55 0 0 1-2.5 3.3M12 12.4v3.4M9.2 19.4h5.6M12 15.8c-1.7 0-2.6 1.1-2.8 3.6M12 15.8c1.7 0 2.6 1.1 2.8 3.6"/></g>
  <text x="360" y="190" text-anchor="middle" font-family="'SF Mono',Menlo,Consolas,monospace" font-size="11.5" font-weight="800" fill="#ffffff">#42</text>
  <rect x="392" y="150" width="52" height="50" rx="9" fill="#ffffff" stroke="#dcdded" stroke-width="1.2"/>
  <text x="418" y="180" text-anchor="middle" font-family="'SF Mono',Menlo,Consolas,monospace" font-size="11" font-weight="650" fill="#454b78">43</text>
  <rect x="450" y="150" width="52" height="50" rx="9" fill="#fcfcff" stroke="#dcdded" stroke-width="1.2"/>
  <text x="476" y="180" text-anchor="middle" font-family="'SF Mono',Menlo,Consolas,monospace" font-size="11" font-weight="650" fill="#9aa0c0">···</text>
  <rect x="508" y="150" width="52" height="50" rx="9" fill="#ffffff" stroke="#dcdded" stroke-width="1.2"/>
  <text x="534" y="180" text-anchor="middle" font-family="'SF Mono',Menlo,Consolas,monospace" font-size="11" font-weight="650" fill="#454b78">118</text>
  <rect x="566" y="150" width="52" height="50" rx="9" fill="#ffffff" stroke="#dcdded" stroke-width="1.2"/>
  <text x="592" y="180" text-anchor="middle" font-family="'SF Mono',Menlo,Consolas,monospace" font-size="11" font-weight="650" fill="#454b78">119</text>
  <rect x="624" y="150" width="52" height="50" rx="9" fill="#ffffff" stroke="#dcdded" stroke-width="1.2"/>
  <text x="650" y="180" text-anchor="middle" font-family="'SF Mono',Menlo,Consolas,monospace" font-size="11" font-weight="650" fill="#454b78">120</text>
  <text x="26" y="242" text-anchor="start" font-family="Inter,'Helvetica Neue',Arial,sans-serif" font-size="9.8" font-weight="550" fill="#676c94">One sold ticket always selects #1; the final ticket is reachable. Residual modulo bias is astronomically small</text>
  <text x="26" y="256" text-anchor="start" font-family="Inter,'Helvetica Neue',Arial,sans-serif" font-size="9.8" font-weight="550" fill="#676c94">for realistic ticket counts against a 256-bit value, but it is not exactly zero.</text>
</svg>
